<?xml version="1.0" encoding="UTF-8" standalone="no"?>
<svg width="200px" height="200px" viewBox="0 0 200 200" version="1.1" xmlns="http://www.w3.org/2000/svg" xmlns:xlink="http://www.w3.org/1999/xlink" xmlns:sketch="http://www.bohemiancoding.com/sketch/ns">
    <!-- Generator: bin/sketchtool 1.3 (252) - http://www.bohemiancoding.com/sketch -->
    <title>deego</title>
    <desc>Created with bin/sketchtool.</desc>
    <defs></defs>
    <g id="Page-1" stroke="none" stroke-width="1" fill="none" fill-rule="evenodd" sketch:type="MSPage">
        <g id="deego" sketch:type="MSArtboardGroup" fill="#000000">
            <g id="Imported-Layers" sketch:type="MSLayerGroup" transform="translate(8.000000, 73.000000)">
                <path d="M22.0923005,35.554896 C21.7696362,35.960112 20.753439,35.748 20.4985211,35.721216 C20.2605399,35.695728 19.8935798,35.252928 19.8723005,34.941456 C19.8536268,34.675776 20.0012793,34.470576 20.1341667,34.256304 C20.2062559,34.140096 20.2201526,33.960384 20.3313263,33.874848 C20.4607394,33.775488 20.6974178,33.770304 20.8494131,33.695568 C21.168169,33.53832 21.4782394,33.360336 21.8308685,33.538752 C22.2260563,33.7392 22.5387324,34.995024 22.0923005,35.554896" id="Fill-1" sketch:type="MSShapeGroup"></path>
                <path d="M33.1810094,36.360144 C33.2222653,36.831024 31.8165258,38.168064 29.673392,39.109824 C28.7119131,39.582 27.6092958,39.682224 26.5961385,40.01184 C26.3846479,40.080528 25.6403052,40.086576 25.5004695,39.994128 C25.3567254,39.898224 25.1799765,39.866256 25.0075704,39.870576 C24.7001056,39.878784 24.4117488,40.015296 24.1047183,40.020912 C23.9731338,40.023072 23.8489319,40.006224 23.7329812,39.94488 C23.6213732,39.885696 22.2673122,39.636432 21.7791901,39.438576 C21.6745305,39.39624 21.220716,39.301632 21.1104108,39.240288 C20.9979343,39.17808 20.9175939,39.06144 20.8233568,38.978496 C20.584507,38.768112 20.345223,38.559024 20.1072418,38.34864 C19.8718662,38.140848 18.6632864,37.363248 18.7332042,37.088064 C18.9012676,36.426672 19.9769601,36.29016 20.4876643,36.764496 C20.6170775,37.052208 20.2040845,36.813312 20.2366549,37.00728 C20.461608,37.37664 20.8837207,37.697184 21.3223357,37.977984 C21.8130634,38.29032 21.9555047,38.292048 22.6590258,38.46312 C23.1254343,38.576304 23.5436385,38.810448 24.0248122,38.894256 C24.5129343,38.97936 25.0097418,38.96856 25.4996009,38.9124 C26.5305634,38.794464 27.5849765,38.563776 28.553838,38.203056 C29.0901643,38.00304 29.6217136,37.755072 30.1159155,37.47168 C30.3104695,37.360656 30.4885211,37.221552 30.6921948,37.12608 C31.0396127,36.962352 32.1843545,36.690624 32.3359155,36.60768 C32.4001878,36.572688 32.6646596,36.280224 32.6798592,36.27936 C32.88527,36.26856 33.0819953,36.267264 33.1810094,36.360144" id="Fill-2" sketch:type="MSShapeGroup"></path>
                <path d="M29.9726056,31.498416 C30.5245657,31.716144 30.5719014,32.031936 30.8090141,32.351616 C31.0769601,32.711472 31.0899883,33.124464 30.7938146,33.499872 C30.4798357,33.898608 29.8861854,34.0632 29.4080516,33.893424 C29.118392,33.790608 28.8135329,33.52104 28.6650117,33.252768 C28.5712089,33.08256 28.651115,32.68944 28.6967136,32.511456 C28.7457864,32.320512 28.8330751,32.141232 28.9585798,31.988304 C29.1227347,31.788288 29.2504108,31.692816 29.4653756,31.552848 C29.5652582,31.488048 29.9474178,31.488912 29.9726056,31.498416" id="Fill-3" sketch:type="MSShapeGroup"></path>
                <path d="M58.9950235,37.746432 L58.3444836,30.225312 L57.2066901,22.542624 L60.295669,22.86576 L65.2550587,23.836464 L68.2628286,30.468096 L66.7181221,33.136992 L65.6611033,33.936192 L63.3008333,35.76744 L58.9950235,37.746432 L58.9950235,37.746432 Z M60.620939,34.430832 L63.5475,33.136992 L65.3358333,29.982528 L64.8481455,29.012688 L63.4667254,25.858224 L59.726338,24.692256 L60.620939,34.430832 L60.620939,34.430832 Z" id="Fill-4" sketch:type="MSShapeGroup"></path>
                <path id="Fill-5" sketch:type="MSShapeGroup"></path>
                <path id="Fill-6" sketch:type="MSShapeGroup"></path>
                <path id="Fill-7" sketch:type="MSShapeGroup"></path>
                <path id="Fill-8" sketch:type="MSShapeGroup"></path>
                <path d="M111.33743,33.684336 L110.930516,32.324832 L104.392981,32.162832 L104.480704,30.949776 L110.320364,30.868992 L110.494507,24.156576 L109.710646,22.862736 L103.521397,24.237792 L103.521397,22.701168 L109.943415,21.66048 L109.903897,20.014128 L109.66331,14.140656 L107.617887,14.12856 L103.579589,15.362784 L100.295622,16.716672 L97.6795657,17.502912 L95.7631221,18.33408 L94.8919718,18.900432 L95.7631221,29.4948 L95.8625704,32.349888 L96.2864202,36.772704 L97.070716,38.633328 L98.4026291,39.251952 L100.121913,39.199248 L106.746737,40.73544 L108.838627,41.382576 L109.623357,40.978224 L111.60885,34.760448 L111.570634,34.505136 L111.33743,33.684336 L111.33743,33.684336 Z M108.315329,38.14776 L98.9884624,37.25784 L98.7274648,34.83216 L98.0291549,30.221856 L98.0291549,28.362096 L97.070716,19.547136 L99.2498944,18.819648 L103.172676,17.687376 L106.484871,16.554672 L107.617887,16.554672 L107.967042,19.789488 L101.25493,21.364992 L102.03966,26.502336 L104.216667,25.622352 L107.825904,24.934176 L108.315329,28.847664 L103.434108,29.413584 L102.12608,29.89872 L102.649378,32.729184 L102.649378,33.78024 L108.838627,34.185024 L109.47223,34.503408 L108.315329,38.14776 L108.315329,38.14776 Z" id="Fill-9" sketch:type="MSShapeGroup"></path>
                <path d="M147.882312,27.556848 L137.313862,24.88752 L135.606737,24.645168 L130.934836,31.761504 L131.518498,34.384608 L137.557488,33.702912 L136.582113,38.79792 L132.591585,39.856752 L129.863052,40.471488 L128.068638,39.994128 L122.4852,31.932144 L124.782934,25.038288 L137.72034,21.652704 L142.67973,24.160032 L144.955751,24.241248 L145.31142,16.511472 L144.792899,10.977984 L131.023862,6.065712 L114.22534,16.638912 L113.755023,20.421936 L111.712207,31.640976 C112.099143,32.723136 112.480434,34.98984 112.797019,36.101376 C112.888216,36.421488 112.99331,36.7524 113.08885,37.088064 L119.509566,46.966176 L122.1925,50.847696 L127.720786,50.443344 L131.216244,49.715424 L133.736761,49.553856 L140.269085,49.248 L143.443181,47.967552 L146.818779,43.4376 L147.443263,42.227136 L147.624354,39.297312 L147.557042,36.694944 L147.888826,34.841232 L147.882312,32.327856 L147.882312,27.556848 L147.882312,27.556848 Z M145.281021,39.283056 L144.77466,42.580512 L143.004566,44.702064 L140.565258,46.583424 L123.005458,47.531664 L114.144131,33.460128 L117.639589,18.175968 L122.924249,14.455152 L128.371761,10.8972 L131.359554,8.829216 L132.1977,8.598528 L133.06885,8.747136 L142.195516,12.91896 L141.667876,20.96712 L136.395376,18.96048 L123.980399,23.028192 L123.005458,23.674896 L120.960469,32.06952 L121.298768,33.783696 L126.419707,41.5476 L129.201221,42.420672 L131.610563,42.51744 L138.289671,40.09176 L140.51966,33.5124 L139.128251,32.435856 L133.379354,32.0976 L134.874554,29.255472 L136.548239,26.828496 L142.510798,27.986688 L145.430411,28.806192 L145.281021,39.283056 L145.281021,39.283056 Z" id="Fill-10" sketch:type="MSShapeGroup"></path>
                <path d="M123.900059,13.242096 L124.793791,12.595392 L123.900059,13.242096" id="Fill-11" sketch:type="MSShapeGroup"></path>
                <path id="Fill-12" sketch:type="MSShapeGroup" d="M119.997254,14.374368 L120.322089,14.212368 L119.997254,14.374368"></path>
                <path id="Fill-13" sketch:type="MSShapeGroup"></path>
                <path id="Fill-14" sketch:type="MSShapeGroup"></path>
                <path id="Fill-15" sketch:type="MSShapeGroup"></path>
                <path id="Fill-16" sketch:type="MSShapeGroup"></path>
                <path d="M184.705129,3.278016 L178.02689,8.965296 L183.216878,13.177296 L176.162559,15.738624 L172.667535,16.790112 L169.009225,17.921952 L167.148803,18.617904 L164.207042,18.241632 L165.95412,16.009056 L169.902958,11.047968 L163.806209,9.026208 L165.087312,7.776432 L167.301667,5.79096 L168.115059,4.901904 L171.772934,1.666656 L173.458779,0.219024 L184.705129,3.278016 L184.705129,3.278016 Z M173.642911,3.284064 L171.122829,5.063472 L170.39108,5.710608 L167.545293,7.893504 L169.496913,8.783424 L173.155223,9.834912 L169.821749,13.716864 L167.591761,16.6752 L175.187617,14.120784 L179.119953,12.973392 L177.412394,11.852352 L175.722641,10.273392 L174.373791,9.268992 L178.683075,4.982688 L173.642911,3.284064 L173.642911,3.284064 Z" id="Fill-17" sketch:type="MSShapeGroup"></path>
                <path d="M48.7891901,10.943424 L68.5064554,15.506208 L76.7181103,26.666496 L78.0995305,28.769904 L75.4982394,41.7096 L73.4654108,41.5476 L71.0921127,42.881184 L57.7755869,49.473504 L57.043838,49.634208 L54.7673826,48.098016 L52.2473005,46.804176 L51.9220305,44.29728 L51.8408216,41.466816 L51.4343427,38.95992 L51.1090728,33.541344 L50.7021596,32.165856 L49.6455751,22.8096 L47.5519484,11.559024 L48.3453638,11.0592 L48.7891901,10.943424 L48.7891901,10.943424 Z M74.685716,33.217776 L75.2546127,30.791232 L75.2646009,28.122768 L66.4892606,17.543952 L64.9297887,16.882128 L63.9544131,16.720128 L62.0027934,16.39656 L60.1328169,15.911424 L56.474507,15.263856 L51.7656925,14.13072 L51.3522653,14.293152 L53.3855282,33.298992 L53.873216,41.224032 L54.2792606,44.540064 L57.4498826,46.2132 L61.9211502,43.892496 L63.4211268,43.349904 L65.2550587,42.51744 L68.6171948,40.76568 L73.6282629,38.231136 L74.685716,33.217776 L74.685716,33.217776 Z" id="Fill-18" sketch:type="MSShapeGroup"></path>
                <path d="M92.4652582,28.484784 L87.6609038,28.735344 L87.4871948,30.352752 L93.1527113,28.816128 L93.7637324,29.463264 L93.5887207,35.286192 L93.327723,36.580032 L91.7582629,36.822384 L89.0562207,37.145952 L87.4871948,37.388736 L87.5584155,38.123136 L92.193838,37.307952 L94.6344484,37.145952 L96.389777,37.642752 L95.4196127,41.513472 L95.0001056,45.255888 L94.286162,45.799776 L85.5694484,44.343504 L84.4364319,43.939152 L82.9546948,43.777152 L79.7957981,43.797024 L79.9903521,41.755392 L78.3340376,26.956368 L77.9410211,23.737536 L79.3710798,23.36472 L83.3898357,22.831632 L92.193838,20.40552 L93.2986268,20.40552 L93.5018662,21.13344 L93.3021009,26.980128 L92.4652582,28.484784 L92.4652582,28.484784 Z M91.0612559,23.3172 L88.8816432,23.801904 L80.4263615,24.934608 L81.3848005,41.432256 L84.872007,41.917392 L86.0931808,41.917392 L93.327723,43.211232 L94.3734507,38.844144 L90.1896714,39.248928 L89.0562207,39.49128 L85.7435915,39.652848 L85.4817254,35.448192 L86.0931808,35.609328 L91.560669,34.725456 L91.9146009,30.906144 L85.5694484,32.374512 L85.5694484,29.9484 L85.8308803,27.443664 L91.3231221,27.441504 L91.6366667,23.435568 L91.0612559,23.3172 L91.0612559,23.3172 Z" id="Fill-19" sketch:type="MSShapeGroup"></path>
                <path d="M169.740106,20.26728 L171.825915,24.177312 L174.190528,28.37592 L174.613944,31.249152 L173.609906,39.88656 L165.214554,43.234992 L162.01223,44.443296 L157.302113,42.83064 L153.074038,41.213232 L149.823075,35.956656 L149.009683,33.934896 L149.57858,24.230016 L155.188509,19.215792 L157.302113,17.841168 L161.422054,17.982432 L165.10642,19.377792 L169.740106,20.26728 L169.740106,20.26728 Z M152.830845,23.74488 L151.61358,25.03656 L150.635599,30.295728 L150.53311,32.17752 L152.667993,37.008144 L154.618744,39.433824 L159.740986,41.456016 L161.441596,41.853888 L162.911608,41.5368 L168.724343,38.705904 L171.447664,35.552304 L171.651338,30.254688 L171.122829,28.435536 L169.334061,24.392016 L168.195833,22.531392 L163.643357,20.9952 L158.602758,19.782576 L152.830845,23.74488 L152.830845,23.74488 Z" id="Fill-20" sketch:type="MSShapeGroup"></path>
                <path d="M176.169507,34.034256 C176.166901,33.986304 176.16777,33.956064 176.16777,33.940944 C176.169507,33.137424 176.373615,31.373568 176.375352,30.438288 C176.373615,30.371328 176.374484,30.312144 176.374484,30.258576 C176.386209,29.700432 176.324542,28.964304 176.186009,28.767312 C175.649683,27.83376 175.085129,27.398736 174.527958,26.311824 C174.405059,26.069904 174.503204,25.776144 174.745528,25.654752 C174.988286,25.532496 175.28446,25.628832 175.406491,25.870752 C175.856831,26.774064 176.397934,27.190512 177.038486,28.275264 C177.374178,28.892592 177.347254,29.660256 177.358979,30.258576 C177.358979,30.321216 177.35811,30.37392 177.359847,30.42792 C177.35507,31.467312 177.150962,33.254928 177.1527,33.940944 L177.1527,33.974208 C177.169202,34.244208 176.962488,34.477056 176.691068,34.493472 C176.68108,34.493904 176.670657,34.493904 176.661103,34.493904 C176.402711,34.493904 176.185141,34.29432 176.169507,34.034256" id="Fill-21" sketch:type="MSShapeGroup"></path>
                <path d="M49.5530751,46.554048 C49.1943662,44.891712 49.3020657,43.060032 49.150939,41.49144 C48.9941667,39.782016 49.0831925,37.770624 48.6728052,36.289296 L48.6728052,36.29016 C48.6015845,36.0288 48.7557512,35.759232 49.0180516,35.688384 C49.2812207,35.617536 49.5509038,35.77176 49.6225587,36.032256 C50.0850587,37.742544 49.9747535,39.78936 50.1319601,41.399856 C50.2713615,42.922656 50.2049178,44.55432 50.4385563,45.948816 C50.5510329,46.056816 50.6040141,46.212768 50.5844718,46.364832 C50.5849061,46.376928 50.5853404,46.391616 50.5857746,46.408032 C50.5961972,46.496592 50.5310563,46.713024 50.3951291,46.811952 C50.2670188,46.911312 50.1745188,46.92168 50.1085094,46.935072 C50.0841901,46.938528 50.0590023,46.940688 50.0333803,46.940688 C49.8062559,46.940688 49.6025822,46.781712 49.5530751,46.554048" id="Fill-22" sketch:type="MSShapeGroup"></path>
                <path d="M58.9741784,52.448256 C58.7861385,52.380432 58.6575939,52.2072 58.6489085,52.008912 C58.6397887,51.811056 58.7531338,51.625728 58.9342254,51.54192 C61.6171596,50.311152 64.6518545,49.244544 67.223615,47.799936 C67.2422887,47.7576 67.2679108,47.71656 67.3000469,47.679408 C67.3921127,47.564064 67.6392136,47.246544 68.0682746,47.248272 C68.177277,47.249136 68.2801995,47.266848 68.3809507,47.294928 C68.5681221,47.348064 68.7070892,47.506608 68.7348826,47.698848 C68.7613732,47.890224 68.6719131,48.080736 68.5060211,48.18312 C65.8074531,49.84632 62.6051291,50.974272 59.8231808,52.21584 C59.7589085,52.350624 59.6334038,52.454304 59.4744601,52.485408 C59.4119249,52.497504 59.3498239,52.50312 59.2898944,52.50312 C59.1795892,52.50312 59.0727582,52.48368 58.9741784,52.448256" id="Fill-23" sketch:type="MSShapeGroup"></path>
                <path d="M60.611385,49.302864 C60.5927113,49.133952 60.7156103,48.983616 60.8849765,48.966336 C62.9013028,48.775392 64.9449883,46.937664 67.155,46.303488 C67.3182864,46.257696 67.4885211,46.352736 67.534554,46.516032 C67.5797183,46.678032 67.4850469,46.846944 67.3213263,46.893168 C65.3071714,47.43792 63.2569718,49.317552 60.9488146,49.575024 C60.9379577,49.57632 60.9275352,49.576752 60.9166784,49.576752 C60.7607746,49.576752 60.6270188,49.459248 60.611385,49.302864" id="Fill-24" sketch:type="MSShapeGroup"></path>
                <path d="M83.074554,19.98 C82.9742371,19.728144 83.0967019,19.443024 83.3490141,19.3428 C84.3765023,18.94104 85.8769131,18.849456 86.4584038,18.67752 C87.3256455,18.435168 88.1967958,18.139248 89.1035563,17.894304 C89.1139789,17.891712 89.1244014,17.889552 89.1343897,17.887392 L89.1343897,17.88696 L89.136561,17.886096 L89.1426408,17.885232 L89.1439437,17.885232 L89.1435094,17.885232 L89.1435094,17.885664 C89.1469836,17.8848 89.1513263,17.884368 89.1548005,17.883504 C89.1500235,17.884368 89.1474178,17.884368 89.1456808,17.8848 C89.1500235,17.883936 89.1548005,17.88264 89.160446,17.880912 C89.1804225,17.877456 89.208216,17.870976 89.2429577,17.864064 C89.3115728,17.848944 89.4049413,17.82864 89.4996127,17.807472 C89.6116549,17.783712 89.7401995,17.754336 89.8244484,17.734464 C89.8626643,17.71632 89.9043545,17.70336 89.9486502,17.695584 C89.9868662,17.6904 89.9981573,17.684784 90.0737207,17.682192 C90.085446,17.686944 90.0971714,17.68608 90.1115023,17.684784 C90.1514554,17.683056 90.2139906,17.680464 90.386831,17.792352 C90.465,17.84808 90.5726995,18.001008 90.5687911,18.173808 C90.5331808,18.505584 90.3920423,18.531072 90.3646831,18.571248 C90.3199531,18.602352 90.2999765,18.610992 90.2821714,18.6192 C90.2496009,18.633888 90.2374413,18.637776 90.2235446,18.642096 C90.2013967,18.649872 90.1861972,18.65376 90.1692606,18.65808 C90.1375587,18.667152 90.1023826,18.675792 90.0602582,18.685728 C89.9768779,18.705168 89.8709155,18.728928 89.7645188,18.75312 C89.5821244,18.793296 89.4344718,18.825264 89.355,18.84168 C88.4916667,19.074528 87.6248592,19.369152 86.7254812,19.620576 C85.946831,19.8288 84.5054812,19.93032 83.7151056,20.25216 C83.6547418,20.27592 83.5930751,20.287584 83.532277,20.287584 C83.3368545,20.287584 83.1522887,20.170944 83.074554,19.98 M89.2325352,18.8568 C89.2255869,18.8568 89.21777,18.8568 89.2103873,18.856368 C89.2073474,18.8568 89.2021362,18.857232 89.1969249,18.857664 C89.2086502,18.858096 89.2203756,18.857664 89.2325352,18.8568 M89.1521948,18.852912 C89.1404695,18.85032 89.1274413,18.846864 89.1126761,18.842112 C89.0953052,18.837792 89.0783685,18.832176 89.0618662,18.826128 C89.0909624,18.838224 89.1213615,18.847728 89.1521948,18.852912 M88.8664437,18.69696 C88.8616667,18.69048 88.8555869,18.684 88.8503756,18.676656 C88.8277934,18.64944 88.8086854,18.6192 88.7921831,18.587232 C88.8039085,18.622224 88.8303991,18.66024 88.8664437,18.69696 M89.5708333,18.010944 L89.5708333,18.01008 C89.5517254,17.991072 89.5326174,17.975952 89.5148122,17.965584 C89.5343545,17.979408 89.5530282,17.994528 89.5708333,18.010944 M89.1617488,17.88264 C89.1713028,17.881344 89.1799883,17.880048 89.1899765,17.879184 C89.17,17.88048 89.1647887,17.881776 89.1617488,17.88264 M89.1456808,17.8848 C89.1448122,17.8848 89.1443779,17.8848 89.1439437,17.885232 C89.1443779,17.8848 89.1448122,17.8848 89.1456808,17.8848" id="Fill-25" sketch:type="MSShapeGroup"></path>
                <path d="M86.5261502,20.893248 C86.497054,20.885472 86.3094484,20.834064 86.2890376,20.586528 C86.3011972,20.40984 86.3832746,20.366208 86.4101995,20.335968 C86.4449413,20.307888 86.4688263,20.29536 86.4931455,20.282832 C86.5396127,20.259072 86.5821714,20.242224 86.6312441,20.224512 C86.7298239,20.189088 86.8496831,20.151504 86.9773592,20.115216 C87.2279343,20.042208 87.5093427,19.969632 87.6079225,19.940256 C88.7018545,19.61496 89.8105516,19.4832 90.8211033,19.158768 C90.9835211,19.106496 91.1563615,19.195056 91.2080399,19.35576 C91.2605869,19.516896 91.1711268,19.689264 91.0100117,19.741536 C89.9217254,20.088432 88.8086854,20.218896 87.7846714,20.526912 C87.6161737,20.573568 87.0590023,20.72304 86.8501174,20.795616 C86.7923592,20.865168 86.7055047,20.905776 86.6138732,20.905776 C86.584777,20.905776 86.5552465,20.901888 86.5261502,20.893248" id="Fill-26" sketch:type="MSShapeGroup"></path>
                <path d="M143.449261,51.67368 C143.318979,51.435648 143.40757,51.138 143.646854,51.008832 C144.170153,50.733216 144.511056,50.635584 144.799413,50.385024 C145.719202,49.609152 146.495246,48.609504 147.051984,47.985696 C147.316021,47.704032 147.786338,46.99512 147.86581,46.70136 L148.494202,44.801424 L148.49507,44.801424 C148.579754,44.544816 148.857688,44.405712 149.11608,44.490384 C149.374472,44.574624 149.515176,44.851104 149.429624,45.108576 L148.802969,46.998576 C148.61493,47.574 148.137664,48.234528 147.787207,48.638016 C147.268251,49.21344 146.457031,50.269248 145.436925,51.13152 C144.954883,51.532848 144.512793,51.649488 144.117171,51.869376 C144.042042,51.909984 143.961702,51.929424 143.881796,51.929424 C143.707653,51.929424 143.538721,51.836544 143.449261,51.67368" id="Fill-27" sketch:type="MSShapeGroup"></path>
                <path d="M144.021197,49.50288 C143.895258,49.387968 143.885704,49.194432 144.001221,49.070016 C144.461984,48.57192 144.701268,48.48768 145.053028,48.041424 C145.37439,47.637504 146.01581,46.835712 146.265951,46.431792 C146.419249,46.19592 146.754507,45.593712 146.745387,45.179424 C146.745387,45.11592 146.739308,45.05976 146.727148,45.01008 C146.687195,44.84592 146.787946,44.680032 146.953838,44.639424 C147.118862,44.59968 147.285188,44.700768 147.325141,44.864496 C147.351631,44.9712 147.361185,45.076608 147.361185,45.179424 C147.3525,45.855936 146.946455,46.487952 146.790552,46.754064 C146.497852,47.221488 145.859038,48.012912 145.534636,48.421152 C145.104707,48.957264 144.833721,49.063968 144.456772,49.481712 C144.39554,49.54824 144.31216,49.581936 144.227911,49.581936 C144.154085,49.581936 144.079824,49.556016 144.021197,49.50288" id="Fill-28" sketch:type="MSShapeGroup"></path>
                <path d="M35.3957981,13.054608 C35.2989554,12.902544 35.280716,12.824352 35.266385,12.744864 C34.6219249,10.803456 33.6022535,8.134128 32.7471714,6.330096 C32.6594484,6.139584 31.7974178,4.625424 31.5637793,4.110912 C31.5303404,4.005936 31.4960329,4.024512 31.4730164,3.779136 C31.4790962,3.705696 31.4712793,3.565728 31.6480282,3.398976 L31.6480282,3.39984 C31.8543075,3.223584 32.1652465,3.246912 32.341561,3.452976 C32.4019249,3.523392 32.438838,3.605472 32.4536033,3.690144 C32.4557746,3.696192 32.4588146,3.703104 32.4618545,3.710016 C32.486608,3.764448 32.5278638,3.847824 32.5786737,3.946752 C32.6798592,4.14504 32.8201291,4.405536 32.9638732,4.670784 C33.2565728,5.208192 33.5527465,5.733936 33.6387324,5.912352 C34.3170657,7.345296 35.0779108,9.25992 35.6919718,10.967616 C35.8656808,11.006064 36.0802113,11.13696 36.129284,11.319696 C36.129284,11.319696 36.1753169,11.660976 36.2044131,11.90808 L36.2282981,11.995344 C36.2508803,12.207024 36.1909507,12.353472 36.2157042,12.481344 C36.2300352,12.524544 36.2443662,12.567312 36.2582629,12.61008 C36.3329577,12.838176 36.2309038,13.087008 36.0168075,13.197168 C35.9451526,13.233888 35.8678521,13.2516 35.7909859,13.2516 C35.6398592,13.2516 35.4909038,13.182048 35.3957981,13.054608" id="Fill-29" sketch:type="MSShapeGroup"></path>
                <path d="M33.8684624,11.796192 C33.5805399,11.458368 33.2135798,10.661328 32.8309859,9.813312 C32.457946,8.976096 32.1053169,8.123328 31.9719953,7.826976 C31.7183803,7.258896 31.5303404,6.692976 31.2063732,6.261408 C31.1711972,6.213024 31.1069249,6.149952 31.0769601,6.1236 C31.0548122,6.11064 31.0348357,6.095088 31.016162,6.076512 C31.025716,6.066144 30.9518897,6.070464 30.9258333,5.859648 L30.9258333,5.858352 C30.9258333,5.777136 30.9584038,5.698512 31.016162,5.641488 C31.0730516,5.584896 31.1520892,5.551632 31.2337324,5.551632 C31.376608,5.565024 31.3635798,5.587488 31.3892019,5.593968 C31.4048357,5.602608 31.4122183,5.607792 31.4196009,5.612976 C31.4330634,5.62248 31.4434859,5.630256 31.4539085,5.639328 C31.4764906,5.657472 31.4999413,5.677344 31.5251291,5.702832 C31.5789789,5.752512 31.6410798,5.818176 31.7005751,5.8968 C32.1027113,6.439824 32.2950939,7.052832 32.5335094,7.57728 C32.6759507,7.893504 33.0238028,8.73504 33.3938028,9.565344 C33.7542488,10.384416 34.1737559,11.226816 34.3309624,11.39184 C34.4425704,11.518416 34.4304108,11.71152 34.303169,11.823408 C34.2449765,11.874384 34.1724531,11.899872 34.0999296,11.899872 C34.0143779,11.899872 33.9296948,11.86488 33.8684624,11.796192" id="Fill-30" sketch:type="MSShapeGroup"></path>
                <path d="M118.137265,49.023792 C117.615704,48.586608 116.926514,47.979216 116.244272,47.100528 C115.765704,46.476288 115.471702,45.724608 115.130364,45.212256 C114.517171,44.270064 113.880528,43.374096 113.62257,42.612912 C113.537453,42.355872 113.678592,42.078528 113.937418,41.995152 C114.195376,41.910912 114.47331,42.05088 114.558427,42.308352 C114.716937,42.816384 115.33534,43.739136 115.955481,44.67744 C116.366303,45.31248 116.661174,46.04256 117.023357,46.50264 C117.644366,47.300976 118.268415,47.853504 118.772606,48.275568 C118.980622,48.449664 119.007113,48.759408 118.831232,48.966336 C118.733521,49.080816 118.594988,49.14 118.454718,49.14 C118.342676,49.14 118.229765,49.101984 118.137265,49.023792" id="Fill-31" sketch:type="MSShapeGroup"></path>
                <path d="M117.55838,12.354336 C117.395962,12.136608 117.443298,11.829888 117.661737,11.668752 C118.63581,10.952928 120.953955,9.453888 121.630117,9.003744 C123.334202,7.870176 125.077371,7.083504 126.809683,6.146496 C127.048533,6.018192 127.347312,6.105888 127.47716,6.343488 C127.607007,6.581088 127.51885,6.878736 127.28,7.007904 C125.506866,7.964352 123.795833,8.739792 122.1773,9.817632 C121.49419,10.272096 119.169531,11.778048 118.24757,12.45672 C118.159413,12.52152 118.056491,12.553056 117.954437,12.553056 C117.803744,12.553056 117.655223,12.484368 117.55838,12.354336" id="Fill-32" sketch:type="MSShapeGroup"></path>
                <path d="M8.39057512,43.838496 C8.22077465,43.833312 8.08658451,43.692048 8.09179577,43.523136 C8.09440141,43.433712 8.0961385,43.343424 8.0961385,43.250976 C8.09700704,42.799536 8.06139671,42.300144 8.02578638,41.797296 C7.99147887,41.306112 7.95717136,40.811472 7.95673709,40.35528 C7.95673709,40.325472 7.95673709,40.298688 7.95760563,40.27536 C7.97627934,39.049776 8.39448357,38.177136 8.38753521,37.111824 C8.38753521,36.942912 8.52519953,36.805968 8.69456573,36.805968 C8.86480047,36.805968 9.00246479,36.942912 9.00246479,37.111824 C8.99812207,37.81728 8.94774648,38.406096 8.82875587,38.982384 C8.74059859,39.4092 8.57383803,39.829104 8.57296948,40.284 C8.57296948,40.309056 8.57210094,40.332384 8.57210094,40.35528 C8.57123239,41.220144 8.71150235,42.302736 8.71150235,43.250976 C8.71150235,43.349904 8.71019953,43.446672 8.7075939,43.542144 C8.70325117,43.708032 8.56602113,43.838496 8.40012911,43.838496 L8.39057512,43.838496" id="Fill-33" sketch:type="MSShapeGroup"></path>
                <path d="M6.50192488,43.722288 C6.26698357,43.031088 6.19011737,42.216336 6.18838028,41.354496 C6.18881455,40.379472 6.21530516,39.344832 6.34992958,38.412144 C6.51017606,37.304496 6.79115023,36.341136 6.91491784,35.795088 L6.91491784,35.795952 C6.97484742,35.532 7.23888498,35.366976 7.50379108,35.42616 C7.76826291,35.48664 7.9345892,35.748 7.87552817,36.011952 C7.6540493,36.977472 7.17200704,39.365136 7.17374413,41.354496 C7.17200704,42.153264 7.25278169,42.884208 7.43387324,43.4052 C7.52203052,43.66008 7.3843662,43.939152 7.127277,44.02728 C7.07429577,44.045424 7.02044601,44.053632 6.96789906,44.053632 C6.76335681,44.053632 6.57184272,43.925328 6.50192488,43.722288" id="Fill-34" sketch:type="MSShapeGroup"></path>
                <path d="M45.6676408,14.757984 L44.2215141,14.757984 L40.3782042,15.992208 L33.8480516,16.9884 L32.8170892,15.587424 L32.5730282,14.293152 L32.0041315,12.918528 L29.0206808,3.72384 L28.3453873,1.59624 L27.9792958,0.644112 L27.2892371,0.3024 L27.2888028,0.302832 L23.8741197,1.59624 L21.1099765,1.75824 L16.7203521,1.51632 L15.9073944,2.647728 L14.3626878,18.336672 L13.7121479,20.844 L9.56571596,19.549728 L5.82706573,17.933184 L4.44434272,17.528832 L1.59855634,16.315344 L1.02965962,22.138272 L0.785598592,23.756112 L0.867241784,24.563952 L0.0547183099,29.476656 L2.49315728,31.034016 L8.42792254,32.40864 L10.379108,33.945696 L10.2978991,36.209808 L9.56571596,45.42912 L14.1181925,46.076256 L15.1752113,45.833472 L22.6551174,46.076256 L22.7363263,47.451312 L16.7238263,47.4552 L17.4481925,52.218864 L17.4521009,52.22232 L18.1226174,53.885952 L39.0771244,51.614064 L40.2904812,50.928912 L40.9093192,46.060272 L38.7518545,46.076256 L34.0369601,46.642608 L33.9553169,45.42912 L43.3738146,44.68608 L45.1178521,43.326576 L44.8373122,40.23 L42.3285211,35.239104 L40.1341432,29.902176 L43.3047653,29.336256 L44.3513615,29.082672 L45.1743075,27.9612 L45.2555164,25.534656 L45.9060563,20.520864 L45.9060563,18.741456 L46.2317606,16.315344 L45.6676408,14.757984 L45.6676408,14.757984 Z M17.9393545,4.022784 L19.6469131,3.375648 L21.7605164,3.618 L20.7039319,4.751136 L19.8905399,5.96376 L21.4352465,5.882976 L23.8741197,4.508352 L26.6386972,3.132864 L26.801115,3.132864 L28.4274648,8.227872 L25.7440962,9.278928 L25.3371831,9.360576 L24.0365376,9.926064 L21.8421596,10.412064 L19.7276878,9.278928 L17.6957277,8.066304 L17.9393545,4.022784 L17.9393545,4.022784 Z M17.4521009,10.654416 L21.0292019,11.786688 L21.1916197,12.110256 L22.0045775,12.271824 L28.6710915,9.522144 L29.2399883,10.977984 L29.5652582,12.676176 L25.5000352,14.212368 L24.3618075,14.535936 L22.2482042,15.425424 L17.2896831,12.999312 L17.4521009,10.654416 L17.4521009,10.654416 Z M20.9475587,16.23456 L23.7117019,16.882128 L23.7117019,16.23456 L29.8900939,14.212368 L30.1341549,14.293152 L31.0096479,17.704656 C30.9201878,17.841168 30.7981573,18.013968 30.6661385,18.162144 L19.484061,19.873296 L19.0775822,20.197296 L17.3704577,20.277648 L17.2084742,15.021504 L20.9475587,16.23456 L20.9475587,16.23456 Z M42.1248474,40.595472 C41.9784977,40.805424 42.315493,42.466464 42.1482981,42.698016 L41.6784155,42.760224 L31.8417136,43.326576 L31.9229225,44.781984 L31.8260798,47.354976 L31.5164437,47.936016 L32.8170892,48.260016 L38.4265845,47.653488 L38.1829577,49.958208 L36.556608,50.281776 L36.5157864,50.280912 L35.7475587,50.366016 L32.1665493,50.52456 L30.1341549,50.52456 L20.1346009,51.25248 L19.484061,48.745152 L24.1993897,48.421152 L24.8603521,45.257616 L21.3540376,44.8632 L16.7203521,44.620416 L11.9242488,43.730928 L12.3298592,33.541344 L14.0374178,34.02648 L15.6633333,33.783696 L15.8157629,40.582944 L15.627723,40.781664 L15.6576878,42.268176 L17.9293662,42.355872 L18.9968075,42.437088 L21.2728286,42.275088 L26.231784,42.113088 L26.4080986,42.931296 L26.8289085,43.079904 L29.5652582,41.78952 L32.6542371,41.627952 L37.8576878,40.900896 L38.2450587,40.646016 L38.0826408,40.351824 L37.5293779,40.330656 L37.7760446,39.040704 L35.6320423,30.822336 L38.1829577,30.38688 L42.1248474,40.595472 L42.1248474,40.595472 Z M17.6418779,41.213232 L16.8085094,41.002848 L17.1263967,39.68784 L17.4521009,33.541344 L24.7687207,32.489424 L28.8339437,31.51872 L33.6300469,31.1148 L34.6054225,33.298992 L35.3371714,35.643456 L36.8358451,39.54744 L36.848439,40.306464 L35.4183803,40.25376 L17.6418779,41.213232 L17.6418779,41.213232 Z M42.4101643,25.372656 L42.3285211,26.504928 L40.4589789,28.365552 L31.5976526,29.982096 L20.8663498,31.357152 L19.8905399,31.68072 L19.0775822,31.68072 L16.7203521,32.24664 L13.6305047,32.40864 L12.4115023,32.003856 L2.24909624,27.394848 L2.57393192,24.3216 L12.5739202,27.556848 L11.1916315,28.284768 L12.8991901,28.688688 L16.7203521,29.012688 L18.7523122,28.203552 L20.8663498,27.880416 L42.490939,23.594112 L42.4101643,25.372656 L42.4101643,25.372656 Z M42.8978521,21.491568 L35.6624413,23.18976 L31.9229225,23.916816 L29.9713028,24.402384 L28.6710915,24.806736 L26.6386972,25.129872 L26.1510094,25.372656 L22.0857864,25.938576 L19.4028521,26.424144 L18.2646244,26.748144 L14.6067488,27.233712 L14.0026761,26.841456 L9.64735915,25.534656 L3.7125939,22.947408 L2.73678404,22.866192 L3.14369718,19.711728 L6.72036385,20.520864 L10.8667958,21.979296 L14.1181925,22.785408 L17.2084742,23.351328 L18.0014554,23.25024 L18.9151643,22.785408 L17.8585798,22.057488 L28.4231221,20.279376 L31.3409977,19.514736 L32.068838,19.44648 L32.6025587,19.214928 L33.2539671,19.231344 L35.8839202,18.734976 L41.3531455,17.933184 L43.1419131,18.013968 L42.8978521,21.491568 L42.8978521,21.491568 Z" id="Fill-35" sketch:type="MSShapeGroup"></path>
                <path d="M160.141385,33.154272 L161.130223,33.165072 L161.828533,32.340384 L161.093744,31.675968 L161.711714,31.13856 L162.09865,31.244832 L162.48081,34.063632 L159.227676,34.707744 L158.023873,30.25944 L163.139167,27.841968 L165.79257,30.382128 L166.253768,33.86232 L162.323169,37.248336 L159.023134,37.360656 L159.321913,38.380608 L162.733122,39.22776 L167.266491,35.92728 L168.700458,32.612112 L166.235962,27.229824 L163.898275,25.562304 L160.358087,26.647056 C160.358087,26.647056 156.201232,29.579904 156.200798,29.579904 L156.900411,35.171712 L159.897758,36.557136 L164.549683,34.1388 L163.221244,29.800224 L160.378932,30.536352 L159.659343,32.193936 L160.141385,33.154272" id="Fill-36" sketch:type="MSShapeGroup"></path>
            </g>
        </g>
    </g>
</svg>