<?xml version="1.0" encoding="UTF-8" standalone="no"?>
<svg width="232px" height="100px" viewBox="0 0 232 100" version="1.1" xmlns="http://www.w3.org/2000/svg" xmlns:xlink="http://www.w3.org/1999/xlink" xmlns:sketch="http://www.bohemiancoding.com/sketch/ns">
    <!-- Generator: bin/sketchtool 1.3 (252) - http://www.bohemiancoding.com/sketch -->
    <title>logo</title>
    <desc>Created with bin/sketchtool.</desc>
    <defs></defs>
    <g id="Page-1" stroke="none" stroke-width="1" fill="none" fill-rule="evenodd" sketch:type="MSPage">
        <g id="logo" sketch:type="MSArtboardGroup" fill="#FFFFFF">
            <rect id="Rectangle-11" sketch:type="MSShapeGroup" x="116" y="92" width="116" height="8"></rect>
            <rect id="Rectangle-12" fill-opacity="0.528645833" sketch:type="MSShapeGroup" x="0" y="92" width="116" height="8"></rect>
            <path d="M13.864,64 L17.08,64 L17.08,34.864 L23.848,34.864 L23.848,31.984 L6.952,31.984 L6.952,34.864 L13.864,34.864 L13.864,64 Z M37.336,64 L52.936,64 L52.936,61.12 L40.552,61.12 L40.552,52.24 L50.776,52.24 L50.776,49.36 L40.552,49.36 L40.552,41.872 L52.936,41.872 L52.936,38.992 L37.336,38.992 L37.336,64 Z M79.336,57.376 C77.848,59.632 76.36,61.408 73.432,61.408 C68.344,61.408 67.432,55.36 67.432,51.472 C67.432,47.632 68.44,41.584 73.432,41.584 C75.88,41.584 77.32,43.36 78.376,45.376 L81.304,43.888 C79.528,40.576 77.272,38.56 73.384,38.56 C69.352,38.56 64.072,41.536 64.072,51.52 C64.072,57.712 66.376,64.432 73.672,64.432 C77.56,64.432 79.96,62.368 81.976,59.2 L79.336,57.376 Z M93.64,64 L96.856,64 L96.856,52.24 L106.744,52.24 L106.744,64 L109.96,64 L109.96,38.992 L106.744,38.992 L106.744,49.36 L96.856,49.36 L96.856,38.992 L93.64,38.992 L93.64,64 Z M124.504,34.864 L124.504,61.12 L121.912,61.12 L121.912,64 L130.456,64 C140.2,64 140.584,55.072 140.584,48.016 C140.584,34.816 136.792,31.984 130.36,31.984 L121.912,31.984 L121.912,34.864 L124.504,34.864 Z M127.72,34.864 L131.128,34.864 C133.96,34.864 137.224,35.824 137.224,48.016 C137.224,60.112 134.248,61.12 130.36,61.12 L127.72,61.12 L127.72,34.864 Z M159.4,38.56 C155.272,38.56 150.52,41.536 150.52,51.52 C150.52,61.552 155.368,64.432 159.4,64.432 C168.136,64.432 168.28,53.536 168.28,51.52 C168.28,41.44 163.384,38.56 159.4,38.56 L159.4,38.56 Z M159.4,41.584 C164.248,41.584 164.92,47.824 164.92,51.52 C164.92,55.168 164.248,61.408 159.4,61.408 C154.552,61.408 153.88,55.168 153.88,51.52 C153.88,47.824 154.552,41.584 159.4,41.584 L159.4,41.584 Z M194.536,57.376 C193.048,59.632 191.56,61.408 188.632,61.408 C183.544,61.408 182.632,55.36 182.632,51.472 C182.632,47.632 183.64,41.584 188.632,41.584 C191.08,41.584 192.52,43.36 193.576,45.376 L196.504,43.888 C194.728,40.576 192.472,38.56 188.584,38.56 C184.552,38.56 179.272,41.536 179.272,51.52 C179.272,57.712 181.576,64.432 188.872,64.432 C192.76,64.432 195.16,62.368 197.176,59.2 L194.536,57.376 Z M208.888,56.992 C209.656,61.456 212.584,64.432 217.24,64.432 C221.848,64.432 225.16,61.744 225.16,56.992 C225.16,54.4 223.96,52.384 221.704,51.136 L216.376,48.784 C214.456,47.92 213.016,47.248 213.016,44.896 C213.016,42.64 215.032,41.584 217.096,41.584 C219.832,41.584 221.128,43.312 221.704,45.76 L224.776,44.848 C223.768,40.96 221.32,38.56 217.144,38.56 C213.208,38.56 209.8,40.912 209.8,45.136 C209.8,49.84 213.256,50.8 216.904,52.336 C219.352,53.344 221.944,54.112 221.944,57.184 C221.944,59.968 219.88,61.408 217.24,61.408 C213.88,61.408 212.392,59.152 211.768,56.08 L208.888,56.992 Z" id="TechDocs" sketch:type="MSShapeGroup"></path>
        </g>
    </g>
</svg>