<?xml version="1.0" encoding="UTF-8" standalone="no"?>
<svg width="200px" height="200px" viewBox="0 0 200 200" version="1.1" xmlns="http://www.w3.org/2000/svg" xmlns:xlink="http://www.w3.org/1999/xlink" xmlns:sketch="http://www.bohemiancoding.com/sketch/ns">
    <!-- Generator: bin/sketchtool 1.3 (252) - http://www.bohemiancoding.com/sketch -->
    <title>osscafe</title>
    <desc>Created with bin/sketchtool.</desc>
    <defs></defs>
    <g id="Page-1" stroke="none" stroke-width="1" fill="none" fill-rule="evenodd" sketch:type="MSPage">
        <g id="osscafe" sketch:type="MSArtboardGroup" fill="#000000">
            <g id="Imported-Layers" sketch:type="MSLayerGroup" transform="translate(10.000000, 77.000000)">
                <path d="M6.87930686,0.175577465 C1.08534657,0.268873239 0.603768953,9.99430986 0.57567148,16.5379718 C0.603768953,25.1270141 1.08403971,34.6282817 6.87930686,34.7228732 C12.7170469,34.6295775 13.2005848,25.1257183 13.2273755,16.5379718 C13.2005848,9.99430986 12.7170469,0.267577465 6.87930686,0.175577465 L6.87930686,0.175577465 Z M8.39983755,28.8270986 C7.98948375,31.2663944 7.34977617,32.1092958 6.87930686,32.0626479 C6.43497473,32.1125352 5.80114801,31.2676901 5.39798195,28.8270986 C4.98044043,26.4117746 4.72756318,22.5004789 4.72756318,16.5833239 C4.72756318,11.5336901 4.98044043,8.05583099 5.39667509,5.85625352 C5.79984116,3.63594366 6.43105415,2.78721127 6.87930686,2.83450704 C7.35435018,2.7904507 7.98948375,3.63723944 8.40049097,5.8575493 C8.82195307,8.05583099 9.07483032,11.5336901 9.07483032,16.5833239 C9.07483032,22.5004789 8.82195307,26.4104789 8.39983755,28.8270986 L8.39983755,28.8270986 Z" id="Fill-1" sketch:type="MSShapeGroup"></path>
                <path d="M25.5941841,10.9790986 C24.778704,9.35484507 23.6162527,9.00109859 22.5910217,9.01340845 C21.3220614,9.01211268 20.4059531,9.64315493 19.6584296,10.4096056 L19.6584296,9.47664789 C19.6597365,9.35484507 19.6290253,9.23757746 19.5486534,9.14687324 C19.468935,9.05422535 19.3473971,9.01016901 19.2369675,9.01340845 L14.8269711,9.01340845 C14.7191552,9.01470423 14.6198339,9.0211831 14.5172455,9.08143662 C14.4107365,9.14104225 14.3512744,9.27904225 14.3584621,9.38529577 C14.3584621,9.53949296 14.4296859,9.71830986 14.5976173,9.8848169 L15.9717798,10.9680845 L16.0057581,10.9790986 C16.029935,10.9842817 16.0541119,11.011493 16.0580325,11.1164507 L16.0580325,38.0847606 C16.0580325,38.1534366 16.0567256,38.2240563 16.0488845,38.2687606 C16.0475776,38.277831 16.0462708,38.2849577 16.0443105,38.2914366 L16.039083,38.2933803 L14.5897762,39.9169859 C14.4466751,40.0491549 14.3512744,40.2234366 14.3584621,40.4087324 C14.3728375,40.6789014 14.6407437,40.7359155 14.8269711,40.7359155 L20.8914513,40.7359155 C21.0463141,40.7229577 21.3057256,40.7268451 21.3586534,40.4087324 C21.3547329,40.169662 21.2011769,40.0387887 21.0731047,39.9085634 L19.6721516,38.3387324 C19.6623502,38.2972676 19.6584296,38.18 19.6584296,38.0847606 L19.6584296,33.2392113 C20.3177401,34.0348169 21.177,34.7254648 22.5452816,34.7222254 C23.5946895,34.7390704 24.7636751,34.3749577 25.5602058,32.43 C26.3691516,30.492169 26.9167256,26.9825634 26.9650794,20.5483944 C26.9637726,15.4534085 26.416852,12.5975211 25.5941841,10.9790986 L25.5941841,10.9790986 Z M21.4880325,11.3529296 C21.9826787,11.3756056 22.2747617,11.4624225 22.5805668,12.7342254 C22.8569675,13.9950141 22.9968014,16.3377746 22.9954946,20.5470986 C22.9954946,26.0327606 22.8798375,29.037662 22.6406823,30.6496056 C22.3727762,32.2887606 22.1009495,32.3697465 21.7180397,32.3820563 C21.3089928,32.3859437 20.7823285,32.0665352 20.3700144,31.4938028 C19.9577004,30.9230141 19.6584296,30.1163944 19.6584296,29.2015775 L19.6584296,14.5794085 C19.6597365,13.5019718 19.9916787,12.6888732 20.3915776,12.1465915 C20.7862491,11.6017183 21.2782816,11.3438592 21.4880325,11.3529296 L21.4880325,11.3529296 Z" id="Fill-2" sketch:type="MSShapeGroup"></path>
                <path d="M38.9457112,21.3290986 C39.1502347,21.3349296 39.3403827,21.2429296 39.4357834,21.0893803 C39.5311841,20.9384225 39.5514404,20.7693239 39.5527473,20.5930986 L39.5527473,17.7683099 C39.5514404,14.4213239 38.9783827,12.2437746 38.0361372,10.8832113 C37.0971588,9.52005634 35.7746173,9.00757746 34.3978412,9.01276056 C30.97387,9.0464507 28.9704549,13.2927042 28.9671877,20.2276901 C28.9684946,25.3408169 29.4023718,28.9333521 30.3779422,31.2787042 C31.3391372,33.6156338 32.9125957,34.7222254 35.0558448,34.7222254 L35.0872094,34.7222254 C37.4630794,34.7196338 38.9444043,32.7507042 39.5004729,30.5239155 C39.5148484,30.4675493 39.523343,30.4144225 39.523343,30.3580563 C39.5246498,30.2764225 39.5030866,30.1798873 39.4285957,30.1079718 C39.3547581,30.0341127 39.2567437,30.0114366 39.1763718,30.0127324 C38.93787,30.0127324 38.7882347,30.1798873 38.6941408,30.3263099 C37.722491,31.7315775 37.0782094,32.3729859 35.638704,32.3820563 C34.6579061,32.3703944 34.0384549,31.918169 33.5797473,30.6975493 C33.1347617,29.4762817 32.9354657,27.5073521 32.9367726,24.6475775 L32.9367726,21.3290986 L38.9457112,21.3290986 L38.9457112,21.3290986 Z M33.3000794,12.1757465 C33.5562238,11.5997746 33.8770578,11.3613521 34.3978412,11.3529296 C34.8663502,11.3581127 35.2244296,11.6049577 35.5106318,12.184169 C35.7889928,12.7620845 35.9516968,13.662 35.9510433,14.852169 L35.9510433,19.2176338 L32.9354657,19.2176338 L32.9367726,14.852169 C32.9354657,13.6581127 33.0537365,12.7523662 33.3000794,12.1757465 L33.3000794,12.1757465 Z" id="Fill-3" sketch:type="MSShapeGroup"></path>
                <path d="M54.4267653,33.8955211 L53.0114368,32.309493 C52.9839928,32.2939437 52.963083,32.217493 52.9670036,32.0270141 L52.9670036,13.8498873 C52.9670036,12.2943099 52.5808267,11.0840563 51.8757762,10.2586479 C51.1720325,9.43259155 50.1533357,9.0108169 48.9614801,9.01211268 C47.4879964,9.00757746 46.6457256,9.65416901 45.890361,10.4186761 L45.890361,9.47664789 C45.8897076,9.37233803 45.8838267,9.26414085 45.8073755,9.15788732 C45.7256968,9.04839437 45.5884765,9.00952113 45.4695523,9.01211268 L41.0589025,9.01211268 C40.9046931,9.01405634 40.6028087,9.0775493 40.5910469,9.38594366 C40.6041155,9.59132394 40.7178123,9.7111831 40.8060253,9.85566197 L42.2135126,11.1656901 C42.2729747,11.2337183 42.2834296,11.2363099 42.2899639,11.3911549 L42.2899639,32.0270141 C42.2945379,32.217493 42.2729747,32.2939437 42.2553321,32.3010704 L40.822361,33.9039437 C40.6622708,34.0037183 40.5910469,34.2000282 40.5910469,34.3496901 C40.5838592,34.4565915 40.6433213,34.5939437 40.7498303,34.6535493 C40.8517653,34.7131549 40.9510866,34.7215775 41.0589025,34.7228732 L47.1233827,34.7228732 C47.2782455,34.7228732 47.5794765,34.6574366 47.5912383,34.3496901 C47.5781697,34.1410704 47.4500975,33.9972394 47.2756318,33.8715493 L45.9099639,32.332169 C45.8975487,32.2887606 45.8884007,32.1779718 45.890361,32.0270141 L45.890361,15.1262254 C45.890361,13.9256901 46.1844043,12.9707042 46.5967184,12.3234648 C47.0116462,11.6755775 47.537657,11.3509859 47.9963646,11.3535775 C48.8967906,11.356169 49.3470036,12.0830986 49.3659531,13.8045352 L49.3659531,32.0270141 C49.3692202,32.217493 49.3489639,32.2939437 49.3300144,32.3010704 L47.8983502,33.9039437 C47.7957617,34.0160282 47.6787978,34.143662 47.6657292,34.3496901 C47.6605018,34.4565915 47.7180036,34.5939437 47.8245126,34.6535493 C47.9277545,34.7131549 48.0277292,34.7215775 48.1335848,34.7228732 L54.1993718,34.7228732 C54.3529278,34.7228732 54.6541588,34.6574366 54.666574,34.3496901 C54.652852,34.143662 54.5371949,34.0160282 54.4267653,33.8955211" id="Fill-4" sketch:type="MSShapeGroup"></path>
                <path d="M62.9631697,16.3202817 C59.5646823,9.16760563 58.9844368,6.96932394 58.9844368,4.78529577 C59.0073069,3.56726761 59.0602347,2.83709859 60.0331913,2.83515493 C60.9074801,2.80146479 62.0143899,4.16785915 62.9030542,6.0564507 C63.8015199,7.93402817 64.533361,10.2832676 64.8979747,12.1109577 C64.9502491,12.3241127 65.071787,12.5709577 65.3625632,12.5826197 C65.4847545,12.5826197 65.6043321,12.5528169 65.6958123,12.4737746 C65.7892527,12.3947324 65.8317256,12.2735775 65.8304188,12.1653803 L65.8304188,0.866873239 C65.8304188,0.575971831 65.7173755,0.186591549 65.3168231,0.174929577 C64.9234585,0.186591549 64.63987,0.457408451 64.2242888,0.815042254 C63.8381119,1.22061972 63.322556,1.52188732 63.2957653,1.49661972 C63.1990578,1.50309859 62.9206968,1.38323944 62.705065,1.24977465 C62.0091625,0.699070423 60.978704,0.178816901 60.0331913,0.174929577 C58.8256534,0.173633803 57.7011011,0.531915493 56.894769,1.46616901 C56.0890903,2.39847887 55.6140469,3.87177465 55.6140469,6.06098592 C55.6127401,9.42352113 56.5451841,12.9188732 59.0314838,18.1233521 C61.6517365,23.586338 63.0134838,26.8938028 63.0102166,29.8850986 C63.0049892,31.2812958 62.5593502,32.0607042 61.8706354,32.0632958 C60.6742058,32.0820845 59.6496282,30.7254085 58.8609386,28.8322817 C58.0709422,26.9527606 57.5096462,24.6022254 57.0966787,22.7823099 C57.0280686,22.6196901 56.9607653,22.350169 56.6327437,22.3151831 C56.2746643,22.3268451 56.2112816,22.6728169 56.2099747,22.8250704 L56.2099747,34.304338 C56.2112816,34.3911549 56.2223899,34.4967606 56.3027617,34.5932958 C56.383787,34.6865915 56.5040181,34.7222254 56.6196751,34.7222254 L56.6327437,34.7222254 C56.9457365,34.7060282 57.1247762,34.4838028 57.2998953,34.3658873 C58.1970542,33.6771831 58.6322383,33.3752676 58.6551083,33.401831 C58.6818989,33.3882254 58.9792094,33.5093803 59.4705884,33.8268451 C60.0188159,34.1909577 60.8519386,34.7248169 62.1463827,34.7222254 C63.9603032,34.7157465 66.5609531,33.1394366 66.5655271,28.2452958 C66.5687942,24.6261972 66.180657,23.0531268 62.9631697,16.3202817" id="Fill-5" sketch:type="MSShapeGroup"></path>
                <path d="M78.112935,11.5310986 C77.0988123,9.70859155 75.6410108,9.0056338 74.0910758,9.01211268 C70.9885921,9.01664789 68.483343,11.7941408 68.4774621,20.7751549 C68.4794224,26.4143662 69.0956065,29.8734366 70.1045018,31.9557465 C71.105556,34.04 72.562704,34.7319437 74.0910758,34.7228732 L74.121787,34.7228732 C75.6606137,34.7228732 77.1171083,34.0263944 78.1181625,31.9557465 C79.1329386,29.8747324 79.7504296,26.4143662 79.7504296,20.7751549 C79.7504296,16.2697465 79.1316318,13.3503662 78.112935,11.5310986 L78.112935,11.5310986 Z M72.9129422,13.0374366 C73.2357365,11.6360563 73.6199531,11.3574648 74.0910758,11.3535775 C74.590296,11.3587606 74.9823538,11.6392958 75.3103755,13.0374366 C75.6201011,14.4193803 75.7828051,16.8172113 75.7828051,20.7751549 C75.7828051,25.8941127 75.6201011,28.8394085 75.3090686,30.4818028 C74.9738592,32.1436338 74.5889892,32.3736338 74.0910758,32.3820563 C73.6212599,32.3762254 73.2422708,32.1468732 72.9135957,30.4830986 C72.608444,28.8394085 72.4457401,25.8941127 72.4457401,20.7751549 C72.4457401,16.8172113 72.608444,14.4193803 72.9129422,13.0374366 L72.9129422,13.0374366 Z" id="Fill-6" sketch:type="MSShapeGroup"></path>
                <path d="M94.5499567,33.8715493 L93.1829819,32.3328169 C93.1712202,32.2907042 93.1620722,32.1799155 93.1653394,32.0270141 L93.1653394,9.47664789 C93.1640325,9.37169014 93.1581516,9.26478873 93.0803935,9.15659155 C93.0000217,9.04709859 92.8608412,9.01016901 92.7432238,9.01276056 L88.332574,9.01276056 C88.1777112,9.01276056 87.8764801,9.07819718 87.864065,9.38594366 C87.877787,9.59521127 88.0012852,9.72673239 88.1509206,9.8848169 L89.4858773,11.1630986 C89.5459928,11.2324225 89.5571011,11.2363099 89.5649422,11.3898592 L89.5649422,28.9288169 C89.5623285,31.1225634 88.6044007,32.378169 87.6895993,32.3820563 C86.629083,32.372338 86.1141805,31.6376338 86.0893502,29.9310986 L86.0893502,9.47664789 C86.090657,9.35549296 86.0599458,9.23692958 85.979574,9.14622535 C85.8998556,9.05422535 85.7783177,9.01146479 85.6685415,9.01276056 L81.2578917,9.01276056 C81.1030289,9.01276056 80.8017978,9.07819718 80.7893827,9.38594366 C80.8031047,9.59197183 80.916148,9.71053521 81.0050144,9.85566197 L82.4125018,11.1656901 C82.4700036,11.2324225 82.4817653,11.2363099 82.4889531,11.3898592 L82.4889531,29.8857465 C82.4889531,31.4575211 82.8012924,32.6645352 83.4860866,33.4899437 C84.1721877,34.3192394 85.2202888,34.7248169 86.5872635,34.7222254 L86.5977184,34.7222254 C87.9823357,34.7222254 88.8409422,34.011493 89.5649422,33.2081127 L89.5649422,34.3496901 C89.6008809,34.638 89.8433032,34.7112113 90.0785379,34.7222254 L94.3513141,34.7222254 C94.5355812,34.7222254 94.8511877,34.6658592 94.8649097,34.3496901 C94.8524946,34.1410704 94.723769,33.9978873 94.5499567,33.8715493" id="Fill-7" sketch:type="MSShapeGroup"></path>
                <path d="M102.712599,9.01276056 C101.663191,9.02183099 100.91044,9.79346479 100.240022,10.6000845 L100.240022,9.47729577 C100.240022,9.35549296 100.208657,9.23692958 100.129592,9.14622535 C100.049874,9.05422535 99.9276823,9.01146479 99.8185596,9.01276056 L95.4072563,9.01276056 C95.3000939,9.01405634 95.2007726,9.02053521 95.0975307,9.08208451 C94.9910217,9.14169014 94.9328664,9.27839437 94.9387473,9.38659155 C94.9400542,9.53884507 95.011278,9.71766197 95.178556,9.8848169 L96.5141661,11.1624507 C96.6370108,11.264169 96.6245957,11.2343662 96.6389711,11.3911549 L96.6389711,32.0263662 C96.6422383,32.217493 96.6219819,32.2939437 96.6036859,32.3010704 L95.1700614,33.9039437 C95.0099711,34.0037183 94.9387473,34.1993803 94.9387473,34.350338 C94.9328664,34.4572394 94.9910217,34.5932958 95.0975307,34.6541972 C95.2007726,34.7144507 95.3000939,34.7215775 95.4072563,34.7228732 L101.564523,34.7228732 C101.670379,34.7215775 101.7697,34.7144507 101.872289,34.6541972 C101.978798,34.5932958 102.03826,34.4572394 102.031072,34.350338 C102.031072,34.1993803 101.959848,34.0037183 101.761859,33.8715493 L100.257011,32.3282817 C100.245249,32.2816338 100.237408,32.1734366 100.240022,32.0263662 L100.240022,15.536338 C100.238715,14.3973521 100.445199,13.3730423 100.800664,12.6532394 C101.160704,11.9276056 101.642282,11.5349859 102.207498,11.5349859 C103.10335,11.5421127 103.930592,11.9800845 104.418051,13.1475775 C104.508877,13.3633239 104.61604,13.6587606 104.963664,13.6769014 C105.333505,13.6600563 105.385126,13.2952958 105.385126,13.0763099 C105.366177,11.5621972 104.450722,9.06847887 102.712599,9.01276056" id="Fill-8" sketch:type="MSShapeGroup"></path>
                <path d="M115.621101,29.6026197 C115.343394,29.6188169 115.194412,29.8222535 115.042816,30.0606761 C114.320123,31.3208169 113.286397,32.3930704 112.175567,32.3820563 C111.552195,32.3801127 111.04056,31.9408451 110.646542,30.1967324 C110.267552,28.4720563 110.070217,25.5513803 110.070217,20.8652113 C110.070217,16.9752958 110.187834,14.553493 110.496906,13.1339718 C110.830155,11.7008451 111.245736,11.3658873 111.946213,11.3542254 C113.064884,11.3470986 113.849,12.1744507 115.092477,14.0461972 C115.198986,14.1906761 115.299614,14.3448732 115.529621,14.3597746 C115.796874,14.3500563 115.876592,14.0986761 115.876592,13.9392958 C115.876592,13.8790423 115.869404,13.8187887 115.853722,13.7585352 C115.394361,11.4721408 114.218841,9.02571831 111.716859,9.01211268 C108.112542,9.04321127 106.107166,13.2978873 106.102592,20.8652113 C106.107166,30.417662 107.83026,34.6891831 111.716859,34.7228732 C114.261968,34.7105634 115.393054,32.2660845 115.945856,30.1610986 C115.960231,30.1008451 115.969379,30.0444789 115.969379,29.9855211 C115.969379,29.8248451 115.845227,29.6026197 115.621101,29.6026197" id="Fill-9" sketch:type="MSShapeGroup"></path>
                <path d="M127.567101,21.3297465 C127.770971,21.3355775 127.960466,21.2416338 128.055213,21.0887324 C128.151267,20.9384225 128.17087,20.7693239 128.17283,20.5924507 L128.17283,17.7683099 C128.17087,14.4219718 127.597812,12.2437746 126.65622,10.8838592 C125.717895,9.52005634 124.3947,9.00757746 123.017924,9.01340845 C119.593953,9.0464507 117.589884,13.2927042 117.587271,20.2276901 C117.588578,25.3414648 118.021148,28.9327042 118.996718,31.2793521 C119.959874,33.6169296 121.533986,34.7228732 123.680502,34.7228732 L123.707292,34.7228732 C126.083162,34.7202817 127.564487,32.7513521 128.119903,30.5232676 C128.133625,30.4669014 128.142773,30.4157183 128.142773,30.3580563 C128.144079,30.2764225 128.122516,30.1798873 128.048679,30.1079718 C127.975495,30.0334648 127.87748,30.0120845 127.796455,30.0133803 C127.5573,30.0133803 127.408318,30.1798873 127.314224,30.3263099 C126.342574,31.7322254 125.696986,32.3729859 124.258134,32.3820563 C123.277336,32.3703944 122.658538,31.918169 122.19983,30.6981972 C121.752884,29.4756338 121.555549,27.5073521 121.555549,24.6469296 L121.555549,21.3297465 L127.567101,21.3297465 L127.567101,21.3297465 Z M121.920816,12.1770423 C122.17696,11.5984789 122.497141,11.3613521 123.017924,11.3535775 C123.48578,11.3587606 123.843859,11.6043099 124.130061,12.1848169 C124.410383,12.7627324 124.572433,13.6613521 124.571126,14.852169 L124.571126,19.216338 L121.555549,19.216338 L121.555549,14.852169 C121.555549,13.6574648 121.673166,12.753662 121.920816,12.1770423 L121.920816,12.1770423 Z" id="Fill-10" sketch:type="MSShapeGroup"></path>
                <path d="M142.12878,2.83515493 C143.129181,2.81053521 144.050516,4.07456338 144.73335,5.89966197 C145.420105,7.71050704 145.891227,10.0137465 146.165668,11.9185352 C146.207487,12.1951831 146.321838,12.5677183 146.723043,12.5826197 C147.070668,12.5735493 147.191552,12.2411831 147.191552,11.9826761 L147.191552,1.14028169 C147.190245,0.906394366 147.183058,0.700366197 147.123596,0.52284507 C147.077856,0.346619718 146.900776,0.165859155 146.677303,0.175577465 C146.274791,0.209267606 145.959184,0.601887324 145.6573,0.925183099 C145.361949,1.26726761 145.060718,1.41239437 144.931339,1.40526761 C144.726162,1.40267606 144.510531,1.36898592 144.273336,1.17526761 C143.561751,0.614197183 142.754112,0.178169014 141.945166,0.175577465 C138.922401,0.183352113 137.391415,2.95177465 136.617755,6.30847887 C135.835599,9.68008451 135.780058,13.7319718 135.780058,16.5386197 C135.780058,20.3475493 135.928386,24.8542535 136.754321,28.4305915 C137.575682,31.9887887 139.098827,34.7099155 141.945166,34.7222254 L141.97065,34.7222254 C144.05313,34.7228732 145.407036,33.568338 146.167628,31.6175493 C146.940635,29.6602817 147.190245,26.8879718 147.191552,23.5072958 C147.190245,23.3511549 147.168682,23.2086197 147.077856,23.086169 C146.986375,22.9611268 146.826285,22.9034648 146.677303,22.9067042 C146.525054,22.9054085 146.376072,22.954 146.271523,23.0589577 C146.165668,23.1639155 146.116007,23.3109859 146.116007,23.4625915 C146.119274,23.6245634 145.877505,25.8422817 145.324704,27.9634648 C144.791505,30.1105634 143.849913,32.1222535 142.817495,32.0626479 C141.871982,32.0438592 141.221819,31.6875211 140.690581,29.5002535 C140.186134,27.324 139.930643,23.4101127 139.931949,16.5839718 C139.931949,11.7811831 140.024736,8.29943662 140.36648,6.03766197 C140.711491,3.74997183 141.304805,2.81053521 142.12878,2.83515493" id="Fill-11" sketch:type="MSShapeGroup"></path>
                <path d="M161.332422,31.4257746 C161.082812,31.4490986 161.037072,31.613662 160.967155,31.6635493 C160.605809,32.1909296 160.166051,32.3801127 159.770726,32.3827042 C159.660296,32.3801127 159.579924,32.3224507 159.491711,32.1449296 C159.411339,31.9738873 159.364946,31.7101972 159.366253,31.4341972 L159.366253,14.898169 C159.36756,12.5145915 158.625917,11.0263944 157.64904,10.1491549 C156.672816,9.27321127 155.488801,9.01276056 154.626274,9.01276056 C153.256686,9.01664789 151.932838,9.844 150.935704,10.723831 C149.939877,11.6347606 149.277953,12.4899718 149.240054,12.9396056 C149.240054,13.0950986 149.309971,13.3471268 149.57069,13.3581408 C149.751036,13.3568451 149.935957,13.3011268 150.074484,13.1650704 C150.852718,12.3824225 152.789484,11.3432113 154.028386,11.3529296 C155.432606,11.4015211 155.710314,11.6710423 155.765202,13.6684789 C155.74952,15.5687324 155.782191,15.8194648 154.918357,16.5250141 C149.858199,20.5127606 148.989791,22.0320563 149.011354,27.1523099 C149.011354,30.2939155 149.562848,32.1760282 150.373755,33.2936338 C151.179433,34.4060563 152.252365,34.7228732 153.182848,34.7228732 L153.200491,34.7228732 C154.443968,34.7163944 155.583549,33.896169 156.347408,33.1076901 C156.893675,33.8851549 157.683018,34.7254648 159.082011,34.7228732 C160.389523,34.7001972 161.457881,33.2586479 161.661751,31.8695775 C161.663711,31.6888169 161.594448,31.435493 161.332422,31.4257746 L161.332422,31.4257746 Z M155.765202,18.2911549 L155.765202,29.8850986 C155.765202,30.4824507 155.567213,31.1251549 155.256181,31.6039437 C154.942534,32.0866197 154.527606,32.3852958 154.119213,32.3827042 C153.699058,32.366507 153.431805,32.2304507 153.167819,31.3493239 C152.92409,30.4746761 152.795365,28.9216901 152.795365,26.3320845 C152.80974,21.8357465 153.455982,20.3190423 155.765202,18.2911549 L155.765202,18.2911549 Z" id="Fill-12" sketch:type="MSShapeGroup"></path>
                <path d="M167.442643,0.175577465 C166.318744,0.17428169 165.253653,0.556535211 164.472805,1.35408451 C163.69065,2.15292958 163.205152,3.35929577 163.206458,4.968 L163.206458,8.79312676 C163.167906,9.03543662 163.225408,8.97842254 163.031993,9.01211268 L161.606863,9.01211268 C161.379469,9.01211268 161.223953,9.21814085 161.223953,9.40602817 C161.223953,9.58160563 161.31674,9.75847887 161.484671,9.89777465 L162.847726,11.2959155 C163.01631,11.4974085 163.215606,11.8116338 163.206458,11.9826761 L163.206458,32.0263662 C163.210379,32.2168451 163.190123,32.2939437 163.171173,32.3010704 L161.738202,33.9032958 C161.578112,34.0050141 161.506235,34.1993803 161.506235,34.3496901 C161.500354,34.4565915 161.559162,34.5932958 161.665671,34.6535493 C161.767606,34.7144507 161.867581,34.7215775 161.975397,34.7228732 L168.270538,34.7228732 C168.422787,34.7228732 168.725325,34.6580845 168.737087,34.3496901 C168.724018,34.1423662 168.606401,34.0160282 168.497278,33.8948732 L166.824498,32.3269859 C166.812736,32.2790423 166.804895,32.171493 166.806856,32.0263662 L166.806856,11.9826761 C166.801628,11.7928451 166.963025,11.4876901 167.132917,11.2823099 L168.498585,9.88287324 C168.650834,9.7571831 168.741661,9.58160563 168.742968,9.40602817 C168.742968,9.21814085 168.588758,9.01211268 168.361365,9.01211268 L166.983282,9.01211268 C166.842141,9.0108169 166.832993,8.9855493 166.832993,8.98684507 C166.827112,8.98684507 166.804242,8.92335211 166.806856,8.79312676 L166.806856,4.23783099 C166.81535,3.20185915 167.119195,2.51833803 167.76413,2.51509859 C168.55478,2.50343662 169.464354,3.31588732 170.182473,4.26374648 C170.321653,4.43219718 170.468022,4.68487324 170.796697,4.7023662 C171.079632,4.66478873 171.156083,4.44709859 171.172419,4.23783099 C171.167191,2.41791549 169.700242,0.189830986 167.442643,0.175577465" id="Fill-13" sketch:type="MSShapeGroup"></path>
                <path d="M179.983917,21.3303944 C180.189094,21.3355775 180.378588,21.2422817 180.472682,21.0893803 C180.568736,20.9390704 180.588993,20.7686761 180.5903,20.5924507 L180.5903,17.767662 C180.588993,14.4213239 180.015282,12.2437746 179.074343,10.8838592 C178.134711,9.52070423 176.812823,9.00887324 175.436047,9.01276056 C172.012076,9.0464507 170.007354,13.2920563 170.006047,20.228338 C170.006047,25.3414648 170.439924,28.9320563 171.415495,31.2793521 C172.377996,33.6162817 173.952108,34.7228732 176.097971,34.7235211 C176.107773,34.7235211 176.116267,34.7228732 176.126069,34.7228732 C178.501285,34.7189859 179.981303,32.7513521 180.538679,30.5232676 C180.552401,30.4681972 180.561549,30.4150704 180.561549,30.3580563 C180.562856,30.2770704 180.539986,30.1798873 180.466148,30.1079718 C180.39231,30.0334648 180.295603,30.0114366 180.213271,30.0127324 C179.976076,30.0127324 179.827094,30.1798873 179.731693,30.3263099 C178.760043,31.7315775 178.115762,32.3736338 176.676256,32.3820563 C175.695458,32.3697465 175.076007,31.9188169 174.617953,30.6969014 C174.171661,29.4756338 173.973018,27.5067042 173.974978,24.6469296 L173.974978,21.3303944 L179.983917,21.3303944 L179.983917,21.3303944 Z M175.436047,11.3529296 C175.904556,11.3581127 176.262635,11.6049577 176.547531,12.184169 C176.827852,12.7620845 176.989903,13.6613521 176.988596,14.8515211 L176.988596,19.216338 L173.973018,19.216338 L173.974978,14.8515211 C173.973018,13.6574648 174.090635,12.7530141 174.338285,12.1757465 C174.59443,11.5991268 174.913957,11.362 175.436047,11.3529296 L175.436047,11.3529296 Z" id="Fill-14" sketch:type="MSShapeGroup"></path>
                <path d="M124.81943,40.4249296 C125.038982,40.0219437 125.439534,39.7789859 125.987762,39.7789859 C126.819578,39.7789859 127.406357,40.4884225 127.406357,41.5626197 C127.406357,42.8292394 126.626162,43.424 125.897588,43.424 C125.387913,43.424 125.013498,43.2199155 124.761928,42.7722254 L124.742325,42.7722254 L124.710307,43.3475493 L124.246372,43.3475493 C124.258787,43.1175493 124.271856,42.7657465 124.271856,42.4839155 L124.271856,38.2305352 L124.807014,38.2305352 L124.807014,40.4249296 L124.81943,40.4249296 L124.81943,40.4249296 Z M124.807014,41.9850423 C124.807014,42.5027042 125.200379,42.9899155 125.794347,42.9899155 C126.477834,42.9899155 126.858783,42.4074648 126.858783,41.5827042 C126.858783,40.8531831 126.497437,40.2130704 125.813296,40.2130704 C125.200379,40.2130704 124.807014,40.7825634 124.807014,41.2943944 L124.807014,41.9850423 L124.807014,41.9850423 Z" id="Fill-15" sketch:type="MSShapeGroup"></path>
                <path d="M130.864307,39.8612676 L129.929249,42.3303662 C129.509747,43.4628732 129.21309,44.1152958 128.773986,44.5247606 C128.477329,44.7929859 128.187859,44.901831 128.057827,44.9342254 L127.910152,44.4858873 C128.729552,44.1852676 129.045159,43.3028451 129.045159,43.2328732 C129.045159,43.2004789 129.032744,43.1492958 129.006606,43.0851549 L127.76117,39.8612676 L128.348603,39.8612676 L129.116383,41.9785634 C129.206556,42.2215211 129.283661,42.4968732 129.341816,42.7080845 L129.361419,42.7080845 C129.418921,42.4968732 129.503213,42.2351268 129.586852,41.9656056 L130.296477,39.8612676 L130.864307,39.8612676" id="Fill-16" sketch:type="MSShapeGroup"></path>
                <path d="M137.469173,43.7466479 C137.188852,43.8814085 136.645199,44.016169 135.949949,44.016169 C134.382372,44.016169 133.119292,43.0087042 133.119292,40.9633239 C133.119292,39.0125352 134.342513,37.7996901 136.125722,37.7996901 C136.853643,37.7996901 137.277065,37.95 137.469173,38.0458873 L137.292747,38.6004789 C137.013733,38.4657183 136.621022,38.3542817 136.142058,38.3542817 C134.758094,38.3542817 133.814542,39.2742817 133.814542,40.9393521 C133.814542,42.5253803 134.677722,43.4602817 136.101545,43.4602817 C136.56548,43.4602817 137.020921,43.3572676 137.324765,43.2147324 L137.469173,43.7466479" id="Fill-17" sketch:type="MSShapeGroup"></path>
                <path d="M142.112444,41.7323662 C142.112444,43.3417183 141.040819,44.0232958 140.07309,44.0232958 C138.953765,44.0232958 138.089931,43.1907606 138.089931,41.7958592 C138.089931,40.3206197 139.017801,39.5042817 140.129285,39.5042817 C141.320487,39.5042817 142.112444,40.4080845 142.112444,41.7323662 L142.112444,41.7323662 Z M140.105108,40.02 C139.161556,40.02 138.769498,40.9393521 138.769498,41.7718873 C138.769498,42.7314085 139.30531,43.5082254 140.089426,43.5082254 C140.881383,43.5082254 141.432224,42.7314085 141.432224,41.7556901 C141.432224,40.9872958 141.056502,40.02 140.105108,40.02 L140.105108,40.02 Z" id="Fill-18" sketch:type="MSShapeGroup"></path>
                <path d="M146.660314,39.5995211 C146.636137,39.9085634 146.620455,40.2577746 146.620455,40.7883944 L146.620455,43.3099718 C146.620455,44.0634648 146.604119,45.7920282 144.541242,45.7920282 C144.045289,45.7920282 143.501635,45.6728169 143.173614,45.4505915 L143.35004,44.9348732 C143.630361,45.1013803 144.053783,45.2601127 144.57326,45.2601127 C145.373058,45.2601127 145.95657,44.8402817 145.95657,43.6980563 L145.95657,43.1829859 L145.940888,43.1829859 C145.716762,43.5872676 145.252827,43.9202817 144.588942,43.9202817 C143.549336,43.9202817 142.806386,43.0087042 142.806386,41.7958592 C142.806386,40.2966479 143.749939,39.5042817 144.692838,39.5042817 C145.437094,39.5042817 145.829152,39.9007887 146.012765,40.2493521 L146.028448,40.2493521 L146.060466,39.5995211 L146.660314,39.5995211 L146.660314,39.5995211 Z M145.948729,41.2639437 C145.948729,40.5110986 145.397235,40.0355493 144.789545,40.0355493 C144.021765,40.0355493 143.485953,40.7093521 143.485953,41.7556901 C143.485953,42.6756901 143.933552,43.3967887 144.781051,43.3967887 C145.277004,43.3967887 145.948729,43.0242535 145.948729,42.1282254 L145.948729,41.2639437 L145.948729,41.2639437 Z" id="Fill-19" sketch:type="MSShapeGroup"></path>
                <path d="M151.415975,43.9287042 L150.75209,43.9287042 L150.75209,41.3753803 C150.75209,40.6691831 150.495946,40.0510986 149.736661,40.0510986 C149.16883,40.0510986 148.593159,40.5272958 148.593159,41.2801408 L148.593159,43.9287042 L147.929928,43.9287042 L147.929928,40.7177746 C147.929928,40.2733239 147.913592,39.9480845 147.897256,39.5995211 L148.489264,39.5995211 L148.529123,40.3050704 L148.544805,40.3050704 C148.76109,39.8852394 149.264884,39.5042817 149.944451,39.5042817 C150.488758,39.5042817 151.415975,39.8295211 151.415975,41.2956901 L151.415975,43.9287042" id="Fill-20" sketch:type="MSShapeGroup"></path>
                <path d="M153.028639,38.8460282 C152.773148,38.8460282 152.597375,38.6477746 152.597375,38.3944507 C152.597375,38.1482535 152.781643,37.95 153.037134,37.95 C153.300466,37.95 153.469051,38.1482535 153.469051,38.3944507 C153.469051,38.6723944 153.284783,38.8460282 153.028639,38.8460282 L153.028639,38.8460282 Z M152.701271,39.6072958 L153.365155,39.6072958 L153.365155,43.9287042 L152.701271,43.9287042 L152.701271,39.6072958 Z" id="Fill-21" sketch:type="MSShapeGroup"></path>
                <path d="M158.273718,38.450169 L156.474827,38.450169 L156.474827,43.9287042 L155.810289,43.9287042 L155.810289,38.450169 L154.019238,38.450169 L154.019238,37.8942817 L158.273718,37.8942817 L158.273718,38.450169" id="Fill-22" sketch:type="MSShapeGroup"></path>
                <path d="M162.613798,41.7323662 C162.613798,43.3417183 161.542173,44.0232958 160.574444,44.0232958 C159.455119,44.0232958 158.591285,43.1907606 158.591285,41.7958592 C158.591285,40.3206197 159.519155,39.5042817 160.630639,39.5042817 C161.821841,39.5042817 162.613798,40.4080845 162.613798,41.7323662 L162.613798,41.7323662 Z M160.606462,40.02 C159.66291,40.02 159.270852,40.9393521 159.270852,41.7718873 C159.270852,42.7314085 159.806664,43.5082254 160.59078,43.5082254 C161.382736,43.5082254 161.933578,42.7314085 161.933578,41.7556901 C161.933578,40.9872958 161.557856,40.02 160.606462,40.02 L160.606462,40.02 Z" id="Fill-23" sketch:type="MSShapeGroup"></path>
                <path d="M169.552567,43.9287042 L168.896523,43.9287042 L168.896523,41.4304507 C168.896523,40.5901408 168.593332,40.0510986 167.937289,40.0510986 C167.40213,40.0510986 166.913365,40.5506197 166.913365,41.2088732 L166.913365,43.9287042 L166.258628,43.9287042 L166.258628,41.2639437 C166.258628,40.5745915 165.961971,40.0510986 165.34644,40.0510986 C164.779264,40.0510986 164.274816,40.606338 164.274816,41.2801408 L164.274816,43.9287042 L163.619426,43.9287042 L163.619426,40.7177746 C163.619426,40.2733239 163.603744,39.956507 163.587408,39.5995211 L164.170921,39.5995211 L164.211433,40.2966479 L164.234957,40.2966479 C164.474765,39.8768169 164.874664,39.5042817 165.562726,39.5042817 C166.129903,39.5042817 166.570314,39.853493 166.753928,40.3685634 L166.770264,40.3685634 C167.057773,39.853493 167.497531,39.5042817 168.169256,39.5042817 C168.705069,39.5042817 169.552567,39.8450704 169.552567,41.3274366 L169.552567,43.9287042" id="Fill-24" sketch:type="MSShapeGroup"></path>
                <path d="M48.6556751,39.9765915 L50.5388592,39.9765915 L50.5388592,41.4310986 L48.6556751,41.4310986 L48.6556751,39.9765915 Z" id="Fill-25" sketch:type="MSShapeGroup"></path>
                <path d="M68.0671083,39.3844225 C67.8436354,39.3844225 67.6567545,39.5638873 67.6567545,39.7912958 C67.6567545,40.0135211 67.8436354,40.1988169 68.0671083,40.1988169 C68.302343,40.1988169 68.4728881,40.0031549 68.4728881,39.7912958 C68.4728881,39.5638873 68.2912347,39.3844225 68.0671083,39.3844225" id="Fill-26" sketch:type="MSShapeGroup"></path>
                <path d="M112.910675,37.9020563 L33.0426282,37.9020563 C30.8817365,37.9020563 29.1298917,39.6396901 29.1298917,41.7816056 C29.1298917,43.9261127 30.8817365,45.6637465 33.0426282,45.6637465 L112.910675,45.6637465 C115.07026,45.6637465 116.822105,43.9261127 116.822105,41.7816056 C116.822105,39.6396901 115.07026,37.9020563 112.910675,37.9020563 L112.910675,37.9020563 Z M46.7463538,39.416169 C47.0933249,39.5638873 47.5200144,39.8126761 47.7330325,40.008338 L47.5200144,40.2934085 C47.3174513,40.0983944 46.8959892,39.8334085 46.5437906,39.669493 L46.7463538,39.416169 L46.7463538,39.416169 Z M40.4838845,40.1191268 L38.2223646,40.1191268 L38.163556,40.1353239 L38.163556,41.0553239 L38.1896931,41.0235775 C38.8672996,41.3514085 39.7422419,41.8438028 40.1846137,42.182 L39.9343502,42.4994648 C39.5501336,42.1923662 38.8032635,41.7433803 38.163556,41.4045352 L38.163556,44.2766197 L37.7845668,44.2766197 L37.7845668,40.1191268 L35.6779097,40.1191268 L35.6779097,39.7647324 L40.4838845,39.7647324 L40.4838845,40.1191268 L40.4838845,40.1191268 Z M42.8466859,39.5742535 L42.8466859,44.2338592 L42.4788051,44.2338592 L42.4788051,43.0015775 C41.982852,43.2134366 41.4921264,43.4201127 41.161491,43.5522817 C41.161491,43.5943944 41.1347004,43.6313239 41.0968014,43.6416901 L40.9053466,43.2393521 C41.3052455,43.107831 41.8920253,42.8804225 42.4788051,42.6471831 L42.4788051,41.0980845 L41.0654368,41.0980845 L41.0654368,40.7488732 L42.4788051,40.7488732 L42.4788051,39.4686479 L42.9538484,39.5003944 C42.9479675,39.5373239 42.9166029,39.5638873 42.8466859,39.5742535 L42.8466859,39.5742535 Z M45.3114224,44.1548169 L44.4155704,44.1548169 C43.9300722,44.1548169 43.7856643,44.0070986 43.7856643,43.4674085 L43.7856643,39.4686479 L44.265935,39.5003944 C44.2607076,39.5373239 44.2286895,39.5638873 44.1535451,39.5742535 L44.1535451,41.2930986 C44.6769422,40.9814648 45.2101408,40.6115211 45.5407762,40.2934085 L45.8505018,40.6270704 C45.8341661,40.6426197 45.8126029,40.6478028 45.7858123,40.6478028 C45.77013,40.6478028 45.7537942,40.6478028 45.7381119,40.6426197 C45.3538953,40.9659155 44.72987,41.3358592 44.1535451,41.658507 L44.1535451,43.4725915 C44.1535451,43.7472958 44.2071264,43.8056056 44.446935,43.8056056 L45.2898592,43.8056056 C45.551231,43.8056056 45.58913,43.5730141 45.6263755,42.6789296 C45.7165487,42.7527887 45.8661841,42.8221127 45.9726931,42.843493 C45.9249928,43.8166197 45.8289386,44.1548169 45.3114224,44.1548169 L45.3114224,44.1548169 Z M46.4529639,40.859662 C46.8051625,40.9924789 47.2423069,41.2302535 47.4612058,41.4097183 L47.2586426,41.7058028 C47.0449711,41.5211549 46.6130542,41.2723662 46.2608556,41.1246479 L46.4529639,40.859662 L46.4529639,40.859662 Z M46.7783718,44.2338592 L46.410491,43.9747042 C46.6823177,43.5522817 47.0769892,42.837662 47.3703791,42.2241127 L47.6428592,42.4515211 C47.3756065,43.0177746 47.0292888,43.6844507 46.7731444,44.1016901 C46.7888267,44.1282535 46.7940542,44.1496338 46.7940542,44.1761972 C46.7940542,44.1975775 46.7888267,44.2131268 46.7783718,44.2338592 L46.7783718,44.2338592 Z M50.9975668,44.2869859 C50.1814332,43.8269859 49.6371264,42.8959718 49.3332816,41.785493 L48.6399928,41.785493 C48.5864116,42.6264507 48.3838484,43.5995775 47.7330325,44.292169 C47.6742238,44.223493 47.5200144,44.1237183 47.4344152,44.0809577 C48.2185307,43.2561972 48.2982491,42.0815775 48.2982491,41.1926761 L48.2982491,39.6273803 L50.9015126,39.6273803 L50.9015126,41.785493 L49.6854801,41.785493 C49.9736426,42.7527887 50.5068412,43.5943944 51.2648195,43.9695211 C51.1733394,44.0440282 51.0563755,44.1865634 50.9975668,44.2869859 L50.9975668,44.2869859 Z M57.4893899,41.0190423 L55.8943682,41.0190423 L55.9159314,43.5885634 C55.9263863,44.1237183 55.5637329,44.1392676 54.5822816,44.1282535 C54.5659458,44.0330141 54.5287004,43.8846479 54.4862274,43.7848732 C54.838426,43.7900563 55.2598881,43.7900563 55.3559422,43.7790423 C55.4840144,43.763493 55.5480505,43.6786197 55.5421697,43.5840282 L55.5212599,41.2989296 C54.9769531,42.0925915 54.091556,42.9173521 53.2218412,43.4246479 C53.1578051,43.3300563 53.0565235,43.2186197 52.9604693,43.1395775 C53.8301841,42.6633803 54.7475993,41.8327887 55.2919061,41.0190423 L53.1689134,41.0190423 L53.1689134,40.6588169 L55.5108051,40.6588169 L55.4996968,39.5159437 L56.0119856,39.5373239 C56.0061047,39.5956338 55.9531769,39.6273803 55.8786859,39.6383944 L55.8891408,40.6588169 L57.4893899,40.6588169 L57.4893899,41.0190423 L57.4893899,41.0190423 Z M62.8553538,41.917662 L58.6041408,41.917662 C58.5721227,41.9701408 58.5028592,42.0077183 58.4335957,42.0180845 L58.4015776,41.5418873 L62.8553538,41.5418873 L62.8553538,41.917662 L62.8553538,41.917662 Z M67.7260181,40.4631549 C67.2941011,42.4515211 66.3655776,43.4881408 64.7333105,44.1016901 C64.6751552,44.0070986 64.5679928,43.8690986 64.4935018,43.7900563 C66.0460505,43.2238028 66.9419025,42.2403099 67.2888736,40.5214648 L64.0027762,40.5214648 L64.0027762,40.1567042 L67.3953827,40.1567042 L67.4274007,40.140507 L67.7900542,40.4158592 C67.7737184,40.4365915 67.7580361,40.4527887 67.7260181,40.4631549 L67.7260181,40.4631549 Z M68.0671083,40.3679155 C67.7417004,40.3679155 67.4809819,40.1087606 67.4809819,39.7912958 C67.4809819,39.4582817 67.7528087,39.2101408 68.0671083,39.2101408 C68.3872888,39.2101408 68.6486606,39.4686479 68.6486606,39.7912958 C68.6486606,40.1087606 68.3872888,40.3679155 68.0671083,40.3679155 L68.0671083,40.3679155 Z M69.4863574,39.9448451 C70.0411191,40.1191268 70.6808267,40.3944789 71.0761516,40.664 L70.872935,40.9970141 C70.4893718,40.727493 69.8601191,40.4476056 69.3158123,40.2623099 L69.4863574,39.9448451 L69.4863574,39.9448451 Z M69.8274477,43.9008451 C69.8222202,43.9487887 69.7902022,44.0012676 69.7529567,44.0226479 L69.4654477,43.6099437 C71.3590866,43.0281408 72.6175921,41.9759718 73.2579531,40.5104507 C73.3696895,40.600507 73.4925343,40.6691831 73.6042708,40.727493 C72.9377726,42.1768169 71.6361408,43.303493 69.8274477,43.9008451 L69.8274477,43.9008451 Z M74.9862744,40.0556338 C75.3593827,40.4897183 75.7383718,41.1291831 75.9036895,41.5580845 L75.5358087,41.7433803 C75.3861733,41.3248451 75.0071841,40.664 74.6497581,40.2305634 L74.9862744,40.0556338 L74.9862744,40.0556338 Z M78.581444,40.1878028 C78.0423646,42.1606197 77.0184404,43.3190423 75.5194729,43.9960845 C75.4606643,43.9163944 75.3378195,43.7848732 75.2476462,43.7161972 C76.7145957,43.0754366 77.7012744,41.9759718 78.2076823,39.9552113 L78.7199711,40.1191268 C78.7042888,40.1670704 78.6670433,40.1878028 78.581444,40.1878028 L78.581444,40.1878028 Z M84.1930975,41.917662 L79.9418845,41.917662 C79.9098664,41.9701408 79.8399495,42.0077183 79.7713394,42.0180845 L79.7386679,41.5418873 L84.1930975,41.5418873 L84.1930975,41.917662 L84.1930975,41.917662 Z M89.260444,44.0122817 C88.7912816,43.4725915 87.9320217,42.6685634 87.3883682,42.2351268 C86.9192058,42.8013803 86.1076462,43.5730141 85.334639,44.0122817 C85.2758303,43.9332394 85.1477581,43.8010704 85.0569314,43.7265634 C86.5349892,42.9225352 87.7033213,41.4207324 88.1829386,40.2726761 L85.5639928,40.2726761 L85.5639928,39.9124507 L88.3913827,39.9124507 L88.4606462,39.8871831 L88.7703718,40.0614648 C88.7592635,40.0873803 88.7324729,40.1087606 88.7004549,40.1191268 C88.4129458,40.7909859 88.0712022,41.3727887 87.6334043,41.9383944 C88.2149567,42.3983944 89.0898989,43.1868732 89.5865054,43.7317465 L89.260444,44.0122817 L89.260444,44.0122817 Z M92.6641588,42.3672958 C92.3596606,42.3672958 92.1146245,42.124338 92.1146245,41.8224225 C92.1146245,41.5211549 92.3596606,41.2775493 92.6641588,41.2775493 C92.9784585,41.2775493 93.2130397,41.5308732 93.2130397,41.8224225 C93.2130397,42.124338 92.9673502,42.3672958 92.6641588,42.3672958 L92.6641588,42.3672958 Z M99.9446715,40.8330986 C99.8754079,42.3562817 99.7257726,43.314507 99.5179819,43.6896338 C99.3049639,44.0543944 98.9952383,44.0705915 98.8188123,44.0705915 C98.6110217,44.0705915 98.2326859,44.0226479 97.8648051,43.9487887 C97.8746065,43.8425352 97.8648051,43.6844507 97.8484693,43.5730141 C98.2483682,43.6630704 98.658722,43.7051831 98.7822202,43.7051831 C98.9736751,43.7051831 99.0808375,43.6578873 99.192574,43.4563944 C99.3526643,43.1337465 99.4859639,42.245493 99.5395451,41.0553239 L97.832787,41.0553239 C97.5655343,42.3193521 97.0375632,43.366338 96.0717942,44.0861408 C96.0084116,44.0174648 95.869231,43.9163944 95.767296,43.8529014 C96.6912455,43.165493 97.1760903,42.2616901 97.4322347,41.0553239 L95.9594043,41.0553239 L95.9594043,40.7009296 L97.5073791,40.7009296 C97.5707617,40.3251549 97.6027798,39.9869577 97.6295704,39.548338 L98.1575415,39.5904507 C98.1523141,39.6481127 98.1046137,39.680507 98.0242419,39.6856901 C97.9922238,40.071831 97.9660866,40.3627324 97.907278,40.7009296 L99.6349458,40.7009296 L99.7205451,40.6691831 L99.9923718,40.7644225 C99.981917,40.7858028 99.9714621,40.8123662 99.9446715,40.8330986 L99.9446715,40.8330986 Z M105.294953,40.2512958 C104.873491,42.256507 103.82735,43.4466761 102.084,44.0543944 C102.025191,43.964338 101.907574,43.8218028 101.83831,43.7472958 C103.491487,43.2134366 104.50561,42.0342817 104.825137,40.4314085 L101.336477,40.4314085 L101.336477,40.0770141 L104.964318,40.0770141 L105.038809,40.0290704 L105.364217,40.1929859 C105.348534,40.2195493 105.326318,40.2409296 105.294953,40.2512958 L105.294953,40.2512958 Z M110.415881,43.694169 L106.852076,43.694169 L106.852076,43.3883662 L108.46278,43.3883662 L108.46278,41.3092958 L107.161148,41.3092958 L107.161148,41.0021972 L110.11661,41.0021972 L110.11661,41.3092958 L108.804523,41.3092958 L108.804523,43.3883662 L110.415881,43.3883662 L110.415881,43.694169 L110.415881,43.694169 Z" id="Fill-27" sketch:type="MSShapeGroup"></path>
            </g>
        </g>
    </g>
</svg>